PathFileType	3	(X/Y/Z)	D:\minhoCalibration\240510\subject3_KPNP\preferred\preferred15.trc
DataRate	CameraRate	NumFrames	NumMarkers	Units	OrigDataRate	OrigDataStartFrame	OrigNumFrames
200.0	200.0	36	10	mm	200.0	216	140	
Frame#	Time	Left_Ankle_Outer1			Left_Ankle_Inner1			Left_Knee_Outer1			Left_Knee_Inner1			Left_Wrist1			Right_Wrist1			Right_Knee_Inner1			Right_Knee_Outer1			Right_Ankle_Inner1			Right_Ankle_Outer1			
		X1	Y1	Z1	X2	Y2	Z2	X3	Y3	Z3	X4	Y4	Z4	X5	Y5	Z5	X6	Y6	Z6	X7	Y7	Z7	X8	Y8	Z8	X9	Y9	Z9	X10	Y10	Z10	
216	1.07	-347.57446	129.61806	-519.08563	-397.05795	150.89528	-495.32898	-174.84444	527.6535	-475.55069	-233.01559	549.02173	-391.08911	-194.0517	899.78943	-719.6601	-361.4783	1115.5829	-448.28152	-333.28711	944.64832	-61.335217	-357.61053	1056.9193	-90.185722	-747.59003	821.97888	-28.969017	-771.05676	920.30804	-4.2829399
217	1.075	-348.05624	129.46085	-518.64465	-397.25342	151.01971	-494.69531	-174.8851	527.17535	-475.05249	-231.09851	548.94122	-390.3114	-197.67984	898.77448	-722.76501	-356.4873	1118.5549	-449.52713	-321.54956	957.37848	-61.97739	-344.83606	1068.1531	-94.425674	-732.95612	842.97491	17.959131	-753.14197	943.26624	37.974178
218	1.08	-346.82794	130.19843	-518.93988	-397.08356	150.91403	-494.35696	-175.50748	527.026	-474.06757	-230.46182	548.17407	-388.95941	-201.77141	897.50781	-724.92395	-351.81091	1121.3864	-451.3652	-311.35593	968.71588	-63.228325	-333.56604	1077.3003	-99.417122	-713.23413	866.00623	64.402748	-731.50677	966.86566	79.134537
219	1.085	-347.4816	128.98624	-517.71667	-396.64874	150.49908	-494.11725	-175.8558	526.83905	-472.65503	-231.32596	547.14575	-387.58649	-205.21411	896.58521	-726.35229	-349.28992	1123.9838	-452.91666	-302.53687	978.87805	-65.290115	-323.50003	1084.7659	-104.78735	-692.07996	889.8114	109.0461	-705.98401	990.87366	119.70095
220	1.09	-346.76907	128.49504	-517.2724	-395.85986	149.8902	-494.08011	-176.86259	526.79102	-470.61374	-232.21144	547.00409	-385.92719	-208.65065	894.60541	-727.10876	-344.38403	1126.4146	-456.22324	-295.42755	987.20605	-67.623337	-315.16867	1090.4041	-110.01951	-664.16803	913.74829	152.71764	-676.76971	1015.7656	158.8524
221	1.095	-344.24002	128.76093	-517.94604	-395.02921	149.12335	-494.33649	-177.94286	527.09186	-468.03857	-233.84695	546.86914	-384.1655	-211.33597	892.82159	-726.81824	-341.87396	1128.5112	-459.1868	-290.58704	993.70239	-70.329941	-309.49335	1094.3854	-114.26321	-633.03979	939.06067	193.32387	-642.92932	1041.8708	194.84323
222	1.1	-343.11539	128.0954	-517.32184	-393.94888	148.3179	-494.69037	-179.1485	527.49695	-465.04935	-236.53008	546.685	-382.71964	-213.38127	890.85736	-725.34045	-340.54184	1130.1274	-462.21439	-287.47452	998.25806	-73.442139	-305.18677	1096.9762	-118.20875	-597.66443	963.80115	233.27261	-604.75305	1067.3818	228.01497
223	1.105	-342.2431	126.83049	-516.85529	-392.82825	147.43803	-495.17953	-180.49176	527.92792	-461.86484	-239.63132	547.25061	-380.24408	-214.65474	888.94318	-722.76929	-339.5369	1131.7595	-465.58099	-285.77948	1001.3275	-76.266281	-302.23932	1098.5775	-121.61309	-559.65942	987.07159	264.17386	-563.50006	1092.9208	256.62656
224	1.11	-340.81818	126.31537	-516.82263	-391.87149	146.67479	-496.00131	-181.89839	528.57043	-458.39453	-243.53992	547.53381	-377.46634	-215.34961	887.13287	-719.10895	-339.42233	1133.4264	-468.6778	-285.37479	1003.6699	-78.314163	-301.22955	1099.6257	-123.74905	-514.24084	1013.9965	293.50613	-519.28076	1116.7424	279.74081
225	1.115	-339.39307	125.96291	-517.04266	-390.8548	146.0961	-496.5455	-183.33832	529.3772	-454.82059	-247.34822	547.76721	-375.63947	-215.49443	885.62952	-714.53986	-339.69067	1135.6039	-471.1709	-284.80853	1005.8394	-79.295326	-300.91571	1100.2166	-125.37511	-464.96274	1034.9624	313.06973	-473.21033	1138.0157	296.52512
226	1.12	-337.89813	126.43633	-517.04041	-390.3558	146.00508	-497.33453	-184.75531	530.10742	-451.34973	-251.19012	547.84729	-374.2294	-215.08855	884.56183	-709.30853	-341.75436	1138.3071	-472.25854	-284.66644	1008.3813	-79.91156	-301.64624	1100.3921	-126.396	-417.86658	1056.0378	323.35675	-424.55515	1156.7997	302.14505
227	1.125	-337.10388	126.48162	-516.85638	-389.85172	145.84129	-497.73959	-186.21317	530.87897	-447.80121	-254.95827	547.84839	-373.04587	-214.4556	884.11322	-703.40533	-344.33929	1141.4886	-472.51724	-283.77283	1010.6505	-80.575172	-303.09167	1100.9523	-126.84336	-395.82239	1071.9094	325.92505	-394.05713	1172.5397	299.32626
228	1.13	-336.5705	126.57653	-516.79608	-389.51822	145.70578	-497.99615	-187.48326	531.64874	-444.19925	-258.87128	548.00201	-371.01935	-213.8459	884.18414	-696.90131	-347.75952	1144.5167	-472.13406	-282.03818	1012.2209	-81.363747	-305.03802	1105.2094	-126.64551	-397.17694	1089.0952	329.85873	-376.53867	1183.7534	295.87021
229	1.135	-336.11246	126.66174	-516.79346	-389.24554	145.60861	-498.2915	-188.65904	532.16199	-440.57547	-262.1189	547.98248	-369.1142	-212.61438	884.73859	-690.08459	-351.12238	1146.4771	-471.18823	-278.71222	1013.3864	-81.539436	-306.85281	1111.2764	-126.7242	-390.34927	1094.0804	328.94183	-370.63531	1189.833	296.33737
230	1.14	-335.67758	126.71661	-516.60687	-389.03748	145.47511	-498.58383	-189.7388	532.56934	-436.80652	-265.11591	547.89844	-366.85208	-211.01109	885.4519	-683.10211	-355.09589	1147.4351	-469.69653	-273.79752	1015.9179	-81.35495	-307.74078	1117.7953	-126.73531	-390.23276	1090.0999	323.24185	-370.43494	1188.9288	297.31104
231	1.145	-335.25729	126.61658	-516.37634	-388.6752	145.45975	-498.87814	-190.61523	532.94055	-432.98651	-267.48007	547.91583	-363.55725	-208.9007	886.1756	-676.24078	-359.39847	1147.672	-467.62302	-267.87631	1020.8486	-81.886765	-305.36789	1122.7743	-127.49869	-388.07849	1081.5254	319.52225	-372.43405	1184.1385	299.85873
232	1.15	-334.33694	126.77324	-516.02985	-388.13928	145.22891	-499.0697	-191.92317	533.14307	-429.33762	-269.75009	547.26129	-361.83734	-206.52142	887.00598	-669.37903	-363.99469	1147.4912	-465.20001	-261.54816	1027.7968	-83.122925	-300.0159	1125.8602	-127.44173	-384.97906	1073.8282	319.55133	-376.6506	1176.5879	302.45328
233	1.155	-333.4747	126.71499	-515.43652	-387.36227	145.09219	-499.36832	-193.46539	533.22589	-425.78455	-271.52121	547.12402	-358.48599	-204.12703	887.79333	-662.74957	-368.28952	1146.6727	-462.95074	-256.74838	1035.8329	-84.515274	-293.58182	1126.9048	-126.80604	-379.20425	1067.1182	321.18448	-379.71219	1168.5975	304.19467
234	1.16	-332.23346	126.66021	-515.099	-386.42117	144.87041	-499.81863	-195.01761	533.5047	-422.29379	-273.31332	546.19397	-357.02771	-201.69896	888.73004	-656.55133	-372.83691	1145.5961	-460.29166	-254.82465	1042.9436	-85.919189	-286.26389	1126.3851	-127.65562	-371.89694	1060.0491	321.93283	-380.02298	1160.6581	306.46143
235	1.165	-331.73306	126.01046	-514.14764	-385.49963	144.57213	-500.32599	-196.57776	533.63379	-419.04169	-275.09128	545.97522	-354.17706	-199.37704	889.58459	-650.77289	-377.21344	1144.2485	-457.58292	-256.95227	1046.5546	-85.972542	-282.5892	1123.2848	-130.27849	-364.63425	1052.5536	322.07736	-379.22931	1152.925	309.31714
236	1.17	-330.47083	125.80087	-513.82977	-384.31635	144.03722	-500.767	-198.05304	533.62341	-416.2009	-277.46222	545.63428	-352.9549	-197.12459	890.39087	-645.57867	-381.67532	1142.4067	-454.80707	-262.27698	1045.2501	-84.207367	-285.68762	1119.9583	-132.44473	-359.13437	1046.4523	322.55826	-378.45312	1145.9357	312.2135
237	1.175	-329.15695	125.64326	-513.59369	-383.31604	143.81924	-501.42194	-199.62643	533.95514	-413.40103	-279.62201	545.60223	-351.67429	-194.93481	891.06726	-640.97949	-386.23218	1140.5801	-452.10403	-267.77145	1040.9181	-82.808945	-293.99942	1119.8986	-132.10786	-355.51654	1040.9523	323.66537	-378.65961	1140.4161	315.4563
238	1.18	-328.00613	125.41355	-513.30414	-382.40744	143.54631	-501.75119	-201.05675	534.28876	-411.09204	-281.72867	545.7804	-350.39191	-192.82471	891.6145	-636.95282	-390.82843	1138.4641	-449.53162	-272.44769	1035.6985	-82.717224	-304.38934	1121.4167	-130.30341	-352.06445	1036.7651	325.91748	-379.02997	1135.4956	317.27151
239	1.185	-326.53293	125.6348	-513.33734	-381.48001	143.39636	-502.09027	-202.39067	534.5705	-409.11722	-284.23203	546.02539	-349.92398	-190.59467	892.2832	-633.26508	-395.16971	1136.1776	-447.1131	-276.61392	1030.8553	-83.240646	-315.51761	1122.426	-127.49505	-349.28452	1032.7424	328.36652	-379.87894	1130.9733	318.40219
240	1.19	-325.72388	125.43769	-513.04102	-380.65067	143.11818	-502.38586	-203.45172	535.1001	-407.37592	-286.57526	546.43225	-349.85269	-188.3824	893.07513	-629.71155	-399.92535	1133.5217	-445.01135	-280.51025	1026.9342	-83.604713	-327.0784	1120.6083	-124.39992	-346.34824	1031.2206	333.20123	-381.45432	1126.1447	319.27411
241	1.195	-325.09781	125.19058	-512.90363	-380.00592	142.87328	-502.71768	-204.40768	535.56378	-405.83725	-288.63953	546.60443	-350.49329	-185.91258	893.99097	-626.20813	-404.74908	1131.4478	-443.46658	-283.99829	1024.5922	-83.842628	-338.05176	1116.0448	-121.49512	-343.64935	1027.4749	335.52066	-383.39413	1120.1761	320.33905
242	1.2	-324.61926	124.86569	-512.82391	-379.44882	142.35825	-503.08554	-205.33752	535.94318	-404.59698	-290.63275	546.86865	-350.77924	-183.11157	895.38519	-622.87854	-408.34457	1128.8804	-442.89362	-287.70477	1023.1857	-83.776657	-348.34656	1109.8351	-118.50397	-338.49692	1020.4589	328.63702	-385.73312	1113.1249	321.47485
243	1.205	-324.21173	124.21877	-512.80566	-379.04196	141.97983	-503.60776	-205.74174	536.38489	-403.91949	-292.53351	547.06036	-351.2337	-180.36301	896.81824	-619.40308	-412.62335	1127.3043	-443.48431	-291.81735	1021.7928	-83.448296	-356.81714	1103.1831	-116.19155	-336.79868	1012.067	323.64072	-388.69522	1104.1141	323.22342
244	1.21	-324.22104	123.75468	-512.79211	-378.7142	141.55594	-504.24506	-206.18738	536.60699	-403.50519	-293.62192	546.974	-352.42273	-177.7128	898.63568	-615.89612	-418.14218	1125.5509	-444.33936	-296.07742	1019.9816	-83.188133	-364.09933	1096.8386	-114.41135	-332.59094	1006.0897	328.28281	-392.08798	1093.5315	324.46362
245	1.215	-323.45129	123.46011	-513.17108	-378.35876	141.06807	-504.84509	-207.16272	537.09314	-402.65775	-295.49823	547.27856	-352.73312	-175.46463	900.50238	-612.25055	-421.7128	1123.8143	-446.04858	-300.34482	1017.5585	-82.944138	-371.47153	1090.8828	-112.81948	-329.68762	998.4928	332.43372	-396.24417	1081.1029	325.45892
246	1.22	-322.9675	123.1762	-513.52667	-378.08139	140.61827	-505.47128	-207.41177	537.21259	-402.58731	-296.41425	547.19427	-353.53058	-172.76054	902.62231	-609.06244	-426.07352	1122.2555	-447.80334	-304.70374	1014.5315	-82.768646	-379.29883	1085.2906	-112.03304	-327.29828	989.78839	335.97897	-400.3931	1067.3993	326.27899
247	1.225	-322.96185	122.63736	-513.58435	-377.73495	140.20483	-505.97812	-207.50732	537.33215	-402.7674	-296.86807	546.83417	-354.51529	-170.17102	904.70374	-605.94562	-430.30792	1120.1891	-449.86554	-308.95859	1011.2148	-82.8563	-388.20819	1079.5031	-111.50529	-324.29788	980.67255	338.93933	-404.12527	1052.5002	326.5257
248	1.23	-322.13235	122.38893	-514.16864	-377.35019	139.7397	-506.58197	-207.56882	537.21594	-403.05246	-297.39062	546.27948	-355.55911	-167.86035	906.82648	-602.96844	-433.91324	1118.0836	-451.85046	-312.3476	1007.839	-83.545586	-396.48358	1073.0779	-111.62777	-322.14655	971.99957	341.56512	-408.68369	1037.3314	326.47641
249	1.235	-322.11652	121.70998	-514.25854	-377.05322	139.22958	-507.20102	-207.37016	537.02161	-403.60507	-297.71127	545.69287	-356.54843	-165.64522	908.9527	-600.10175	-438.29529	1115.8643	-453.23297	-316.13818	1004.577	-83.689758	-405.01871	1066.1763	-110.64259	-320.84177	963.07672	344.50485	-413.66452	1021.433	325.70938
250	1.24	-321.26648	121.37727	-514.83789	-376.6257	138.69298	-507.78162	-207.22937	536.73035	-404.16455	-297.83948	544.87988	-357.80173	-163.40788	911.10437	-597.39685	-442.06894	1113.0565	-454.61954	-319.38937	1001.1564	-84.055695	-411.71429	1058.4056	-109.81544	-320.47141	953.80945	347.40475	-418.8764	1005.0982	324.34381
251	1.245	-320.74677	120.77445	-515.26398	-376.1163	138.20183	-508.40271	-207.69287	536.28784	-404.44543	-297.84686	544.21436	-358.73969	-161.50478	913.15808	-594.73297	-445.85468	1109.9432	-455.63306	-321.84656	997.26898	-84.886475	-417.13629	1050.6276	-108.65273	-325.71985	941.25635	340.9693	-425.08035	988.38501	322.76749
